<?xml version="1.0" encoding="utf-8" ?>
<svg xmlns="http://www.w3.org/2000/svg" xmlns:xlink="http://www.w3.org/1999/xlink" width="1024" height="1024">
	<path fill="#463244" d="M332.418 172.757C336.799 161.679 367.698 146.785 379.11 141.844C440.624 115.009 510.313 113.881 572.664 138.709C603.984 151.144 630.305 169.694 653.989 193.588C660.743 200.401 668.596 208.46 672.763 217.147C676.456 219.973 680.462 222.35 684.263 225.026C689.139 228.459 693.709 232.222 698.273 236.053C712.655 226.132 726.99 224.789 744.045 227.872C756.072 230.046 768.276 235.051 777.235 243.576C782.098 248.203 786.789 254.377 793.276 256.708C807.24 261.724 829.047 251.906 839.225 266.385C841.419 269.505 842.693 273.28 841.812 277.079C839.916 285.258 830.449 291.151 823.691 295.092C804.476 306.295 782.638 309.265 761.212 303.494C757.016 302.364 752.801 300.989 748.468 300.522C748.846 309.377 750.553 318.13 751.09 326.992C752.58 351.582 745.875 375.404 732.558 396.036C729.586 400.642 725.496 404.36 722.43 408.837C738.532 411.088 755.044 413.576 770.753 417.855C825.014 432.633 876.638 465.107 910.811 510.093C941.304 550.235 959.754 594.355 964.701 644.572C966.579 663.638 966.679 681.697 964.016 700.689C958.37 740.963 942.631 781.823 919.289 815.178C913.305 823.729 906.407 831.382 899.817 839.448C906.004 846.199 909.523 854.938 909.054 864.143C908.548 874.088 903.385 882.581 896.089 889.086C893.699 891.217 891.046 893.142 888.43 894.989C899.196 894.993 961.289 893.776 967.252 895.911C969.414 896.686 970.949 898.072 971.812 900.219C972.167 901.099 972.2 902.043 971.716 902.871C970.598 904.784 968.142 905.521 966.109 905.999C956.647 908.223 945.879 906.652 936.268 906.201C931.605 905.982 926.925 906.06 922.259 906.1L735.372 906.021L67.7944 906.921C63.5728 906.886 58.0048 907.253 54.3733 904.827C53.0269 903.928 52.2674 902.748 52.0172 901.131C51.8048 899.758 52.1853 898.447 53.056 897.374C54.3101 895.827 56.9324 895.291 58.785 895.058C67.1325 894.01 76.3634 894.922 84.7811 894.964L135.832 895.035C134.279 890.394 133.111 885.607 131.76 880.901C110.975 862.887 90.096 821.9 80.3448 796.123C56.1837 732.254 58.5041 656.584 86.5522 594.389C109.863 542.86 149.504 500.449 199.344 473.717C211.855 467.005 224.804 461.688 238.069 456.686C237.08 431.997 239.978 407.07 245.072 382.938C246.377 376.754 247.591 370.209 249.887 364.307C233.525 351.914 202.788 358.698 183.371 358.877C169.792 359.002 149.506 359.157 139.243 348.667C135.684 345.029 133.424 339.832 133.656 334.706C133.887 329.609 136.45 325.324 140.184 321.968C144.823 317.799 150.864 315.227 156.911 313.917C185.458 307.734 199.838 328.525 224.509 327.496C233.527 327.12 242.095 324.343 250.608 321.576C264.922 316.921 277.959 313.431 293.191 314.368C296.507 298.778 308.032 279.569 317.497 267.055C295.722 272.736 260.239 267.954 240.05 259.183C231.486 255.462 222.772 249.55 219.398 240.429C217.617 235.617 217.568 230.154 219.909 225.522C221.308 222.753 223.347 220.508 225.734 218.555C244.283 203.379 265.605 216.465 285.047 208.666C303.654 201.203 306.268 181.12 332.418 172.757Z"/>
	<path fill="#F6F5F8" d="M249.887 364.307C250.055 364.351 250.225 364.389 250.39 364.441C255.571 366.063 260.809 369.221 265.959 371.187C277.763 375.692 293.261 375.421 305.686 374.127C285.297 383.579 266.775 394.822 258.555 417C253.936 429.232 254.487 442.817 260.082 454.635C265.857 466.851 276.833 476.09 289.503 480.548C302.791 485.312 317.437 484.527 330.14 478.37C348.146 469.568 365.418 458.712 386.199 465.859C399.06 470.282 409.155 480.344 414.996 492.464C421.603 506.171 423.167 523.606 417.966 538.023C413.258 551.073 402.844 559.146 390.572 564.763C380.558 569.231 370.026 572.433 359.22 574.295C350.851 575.776 342.068 576.492 333.609 577.302C320.972 578.513 288.657 579.871 283.233 593.438C282.062 596.367 282.297 599.78 283.558 602.643C285.216 606.406 289.046 608.377 292.752 609.622C314.753 617.011 386.019 598.839 396.688 620.957C398.083 623.85 398.506 627.826 397.403 630.88C396.044 634.644 392.647 637.041 389.1 638.562C371.042 646.307 329.478 636.908 320.679 658.601C319.084 662.535 319.174 667.581 320.867 671.473C322.466 675.15 325.452 677.316 329.142 678.657C351.072 686.627 383.607 666.767 397.311 693.599C398.735 696.389 399.65 699.328 399.555 702.483C399.244 712.738 396.653 723.473 394.929 733.575C392.543 747.567 390.455 761.618 388.261 775.642L383.438 806.497C382.772 810.752 382.546 815.821 381.283 819.87L372.998 869.047C371.59 877.947 370.758 887.198 368.94 895.997C352.518 896.034 335.305 897.086 318.991 895.425C318.531 891.942 318.203 888.366 317.327 884.961C309.825 870.415 302.434 856.864 291.589 844.44C289.798 842.388 286.84 838.655 284.216 837.823C284.007 837.757 283.792 837.71 283.58 837.654L282.838 838.168C282.873 839.203 283.143 839.842 283.801 840.651C288.242 846.119 292.969 849.608 297.785 856.104C306.499 867.862 313.673 881.263 317.4 895.475C300.04 896.647 280.892 896.72 263.512 895.315C249.446 893.85 234.916 895.016 220.781 895.026L135.832 895.035C134.279 890.394 133.111 885.607 131.76 880.901C110.975 862.887 90.096 821.9 80.3448 796.123C56.1837 732.254 58.5041 656.584 86.5522 594.389C109.863 542.86 149.504 500.449 199.344 473.717C211.855 467.005 224.804 461.688 238.069 456.686C237.08 431.997 239.978 407.07 245.072 382.938C246.377 376.754 247.591 370.209 249.887 364.307Z"/>
	<path fill="#595B6D" d="M201.569 836.244C196.42 825.381 189.169 815.656 183.261 805.218C177.231 794.566 169.899 779.087 173.692 766.547C175.081 761.953 178.178 758.264 182.512 756.18C188.726 753.193 195.949 754.171 202.234 756.381C227.037 765.104 239.706 790.301 250.358 812.42C250.341 812.683 250.326 812.947 250.306 813.209C250.094 815.912 248.816 818.503 248.472 821.219C247.587 828.199 248.648 835.811 249.428 842.76C250.385 846.895 251.67 851.178 252.209 855.38C254.062 861.774 255.261 868.33 256.916 874.775C258.701 881.725 261.041 888.582 263.512 895.315C249.446 893.85 234.916 895.016 220.781 895.026L135.832 895.035C134.279 890.394 133.111 885.607 131.76 880.901C130.405 866.364 130.098 852.03 138.367 839.326C143.383 831.621 150.974 826.215 160.013 824.361C175.898 821.101 188.738 827.668 201.569 836.244Z"/>
	<path fill="#463244" d="M252.209 855.38L251.974 855.543L251.208 855.301C247.637 849.316 245.353 842.47 242.22 836.228C235.943 823.717 227.808 811.847 219.115 800.907C216.13 797.149 205.577 791.152 204.97 786.924L205.583 786.397C209.437 786.862 212.806 790.906 215.407 793.54C224.089 802.329 231.431 811.366 237.574 822.158C241.268 828.648 244.002 836.908 249.088 842.403C249.2 842.523 249.315 842.641 249.428 842.76C250.385 846.895 251.67 851.178 252.209 855.38Z"/>
	<path fill="#AFDDCC" d="M314.595 839.555C311.005 820.912 305.177 802.68 296.211 785.879C291.007 776.127 284.561 766.907 278.149 757.926C270.317 746.958 252.786 728.194 253.054 714.284C253.151 709.255 255.154 703.526 258.898 700.058C262.982 696.275 268.934 695.303 274.313 695.67C288.413 696.631 300.329 706.75 309.119 716.983C308.59 721.94 319.548 736.524 322.346 741.304C331.636 757.208 339.294 774.012 345.201 791.458C346.967 796.793 351.288 815.405 353.634 818.387L354.874 818.883C343.649 821.387 333.802 827.8 327.632 837.574C321.636 847.07 317.592 860.026 317.471 871.28C317.424 875.585 318.114 880.771 317.327 884.961C309.825 870.415 302.434 856.864 291.589 844.44C289.798 842.388 286.84 838.655 284.216 837.823C284.007 837.757 283.792 837.71 283.58 837.654L282.838 838.168C282.873 839.203 283.143 839.842 283.801 840.651C288.242 846.119 292.969 849.608 297.785 856.104C306.499 867.862 313.673 881.263 317.4 895.475C300.04 896.647 280.892 896.72 263.512 895.315C261.041 888.582 258.701 881.725 256.916 874.775C255.261 868.33 254.062 861.774 252.209 855.38C251.67 851.178 250.385 846.895 249.428 842.76C248.648 835.811 247.587 828.199 248.472 821.219C248.816 818.503 250.094 815.912 250.306 813.209C250.326 812.947 250.341 812.683 250.358 812.42C252.354 808.654 254.605 805.629 258.267 803.309C262.839 800.414 268.425 800.082 273.58 801.381C291.731 805.954 305.342 824.489 314.595 839.555Z"/>
	<path fill="#68B5A7" d="M309.119 716.983C329.953 737.454 343.164 764.956 351.952 792.481C354.586 800.729 357.188 809.289 358.134 817.914L354.874 818.883L353.634 818.387C351.288 815.405 346.967 796.793 345.201 791.458C339.294 774.012 331.636 757.208 322.346 741.304C319.548 736.524 308.59 721.94 309.119 716.983Z"/>
	<path fill="#463244" d="M245.504 631.223C260.307 630.285 282.223 630.017 294.709 639.085C296.961 640.72 299.512 643.183 299.653 646.159C299.731 647.819 299.003 649.276 297.941 650.493C289.833 659.793 268.684 660.318 257.433 660.902C243.356 661.16 217.362 662.145 206.192 653.18C204.083 651.488 202.662 649.282 202.505 646.538C202.35 643.825 203.308 641.347 205.21 639.417C213.2 631.315 234.773 631.588 245.504 631.223Z"/>
	<path fill="#F6F5F8" d="M722.43 408.837C738.532 411.088 755.044 413.576 770.753 417.855C825.014 432.633 876.638 465.107 910.811 510.093C941.304 550.235 959.754 594.355 964.701 644.572C966.579 663.638 966.679 681.697 964.016 700.689C958.37 740.963 942.631 781.823 919.289 815.178C913.305 823.729 906.407 831.382 899.817 839.448C906.004 846.199 909.523 854.938 909.054 864.143C908.548 874.088 903.385 882.581 896.089 889.086C893.699 891.217 891.046 893.142 888.43 894.989C854.24 895.462 820.046 895.622 785.854 895.47L739.098 895.526C736.272 895.594 730.143 896.569 727.83 894.832C727.186 894.348 727.253 893.236 727.124 892.488C726.985 893.431 726.821 894.294 726.535 895.204L725.73 895.476C711.045 895.447 696.31 895.722 681.631 895.381C675.05 894.671 668.182 895.091 661.569 895.14C661.522 882.261 660.406 869.33 659.772 856.464C658.771 835.849 658.151 815.218 657.911 794.58C657.822 779.421 657.522 764.057 660.864 749.174C662.99 739.528 667.109 730.434 672.956 722.474C684.338 707.167 697.322 706.12 707.93 694.695C714.638 687.469 717.28 677.437 722.703 669.324C724.448 666.713 726.545 663.808 729.072 661.926C733.304 658.773 743.91 656.172 745.513 650.965C745.932 649.604 745.363 648.437 744.866 647.205C742.244 645.235 739.388 644.203 736.293 643.266C713.379 643.939 710.111 654.854 694.271 667.216C694.159 667.304 694.045 667.389 693.931 667.476C691.155 667.552 688.243 667.787 685.478 667.516C683.236 667.296 681.703 666.615 680.285 664.834C677 660.706 675.991 654.508 674.902 649.456C669.186 622.927 671.748 602.596 674.599 576.25C699.533 571.153 729.616 563.699 747.235 544.084C753.409 537.212 757.941 528.51 757.301 519.031C756.697 510.066 751.946 501.588 745.167 495.807C741.201 492.425 736.65 490.143 731.86 488.172C711.668 479.861 691.312 483.522 670.306 485.092C662.367 485.685 651.1 485.687 644.834 479.96C642.192 477.545 641.141 474.242 641.112 470.721C640.974 454.444 663.419 446.946 675.381 441.573C681.602 438.779 687.868 435.73 693.71 432.205C704.318 425.803 713.737 417.617 722.43 408.837Z"/>
	<path fill="#AFDDCC" d="M762.824 773.678C767.954 765.182 772.888 756.418 778.908 748.517C792.448 730.746 814.715 710.581 836.868 705.201C847.004 702.739 860.083 701.584 869.4 707.286C873.731 709.936 876.475 713.824 877.578 718.773C879.122 725.703 876.846 732.681 873.045 738.462C855.453 765.22 805.352 785.969 781.383 812.163L781.844 811.908C790.661 806.948 803.683 795.84 814.825 798.514C817.125 799.066 818.907 800.54 820.034 802.605C822.242 806.649 819.815 810.69 821.132 814.339C805.09 839.015 790.308 865.934 785.854 895.47L739.098 895.526C736.272 895.594 730.143 896.569 727.83 894.832C727.186 894.348 727.253 893.236 727.124 892.488C726.985 893.431 726.821 894.294 726.535 895.204L725.73 895.476C723.956 888.692 724.718 881.404 723.176 874.474C716.44 856.381 709.102 839.024 715.195 819.658C722.694 795.821 741.867 784.475 762.824 773.678Z"/>
	<path fill="#F6F5F8" d="M725.286 875.263C720.512 853.752 708.791 840.823 718.358 816.979C725.67 798.757 741.639 785.439 759.317 777.835C758.197 786.502 752.305 794.929 749.594 803.285C744.096 820.235 741.221 836.694 738.928 854.291C734.529 859.298 730.887 864.313 729.029 870.811C728.329 873.261 727.979 876.364 726.706 878.56C725.918 877.553 725.648 876.463 725.286 875.263Z"/>
	<path fill="#463244" d="M762.824 773.678C769.353 771.495 775.731 769.21 781.881 766.072C790.109 761.873 829.536 736.416 835.251 737.8C834.959 738.972 834.249 739.134 833.238 739.764C828.118 742.951 822.207 745.132 816.939 748.152C806.839 753.941 797.12 760.461 786.822 765.907C777.93 770.609 768.707 774.265 759.317 777.835C741.639 785.439 725.67 798.757 718.358 816.979C708.791 840.823 720.512 853.752 725.286 875.263L723.176 874.474C716.44 856.381 709.102 839.024 715.195 819.658C722.694 795.821 741.867 784.475 762.824 773.678Z"/>
	<path d="M738.928 854.291C751.427 844.5 764.657 838.97 779.506 833.821C784.558 832.07 790.113 830.597 794.939 828.315C800.614 825.631 804.842 820.942 810.793 818.662C797.737 837.277 757.236 837.199 737.795 859.041C729.674 868.632 728.697 880.502 727.124 892.488C726.985 893.431 726.821 894.294 726.535 895.204L725.73 895.476C723.956 888.692 724.718 881.404 723.176 874.474L725.286 875.263C725.648 876.463 725.918 877.553 726.706 878.56C727.979 876.364 728.329 873.261 729.029 870.811C730.887 864.313 734.529 859.298 738.928 854.291Z"/>
	<path fill="#F6F5F8" d="M737.795 859.041C739.355 861.924 737.694 870.424 737.597 874.084C737.405 881.282 738.677 888.369 739.098 895.526C736.272 895.594 730.143 896.569 727.83 894.832C727.186 894.348 727.253 893.236 727.124 892.488C728.697 880.502 729.674 868.632 737.795 859.041Z"/>
	<path fill="#595B6D" d="M821.132 814.339C837.191 795.5 862.916 770.406 888.533 768.341C894.86 767.832 901.644 768.745 906.63 772.989C910.649 776.477 913.074 781.452 913.346 786.766C913.737 793.498 910.773 799.476 906.277 804.291C901.525 809.379 895.373 812.508 889.186 815.496C873.547 823.049 858.14 829.315 847.663 843.93C858.511 836.451 869.499 829.326 883.303 831.875C889.904 833.095 894.117 836.356 899.817 839.448C906.004 846.199 909.523 854.938 909.054 864.143C908.548 874.088 903.385 882.581 896.089 889.086C893.699 891.217 891.046 893.142 888.43 894.989C854.24 895.462 820.046 895.622 785.854 895.47C790.308 865.934 805.09 839.015 821.132 814.339Z"/>
	<path fill="#F26969" d="M606.548 586.832C608.548 573.542 599.174 543.239 605.911 533.243C607.28 531.212 609.473 530.063 611.861 529.654C614.008 529.283 616.212 529.835 617.931 531.175C620.275 532.971 621.741 535.743 622.673 538.491C624.698 544.459 625.075 551.198 625.922 557.434C627.219 567.222 628.586 577.002 630.021 586.771C637.382 585.63 644.718 584.684 652.005 583.101C658.028 577.995 654.726 552.548 663.967 545.317C666.006 543.721 668.98 542.911 671.55 543.249C673.373 543.489 674.93 544.431 675.935 545.978C680.447 552.92 675.978 568.749 674.599 576.25C671.748 602.596 669.186 622.927 674.902 649.456C675.991 654.508 677 660.706 680.285 664.834C681.703 666.615 683.236 667.296 685.478 667.516C688.243 667.787 691.155 667.552 693.931 667.476C694.045 667.389 694.159 667.304 694.271 667.216C710.111 654.854 713.379 643.939 736.293 643.266C739.388 644.203 742.244 645.235 744.866 647.205C745.363 648.437 745.932 649.604 745.513 650.965C743.91 656.172 733.304 658.773 729.072 661.926C726.545 663.808 724.448 666.713 722.703 669.324C717.28 677.437 714.638 687.469 707.93 694.695C697.322 706.12 684.338 707.167 672.956 722.474C667.109 730.434 662.99 739.528 660.864 749.174C657.522 764.057 657.822 779.421 657.911 794.58C658.151 815.218 658.771 835.849 659.772 856.464C660.406 869.33 661.522 882.261 661.569 895.14C668.182 895.091 675.05 894.671 681.631 895.381C668.631 895.872 655.492 895.497 642.477 895.454C620.994 895.314 599.51 895.37 578.028 895.622C578.185 859.182 578.671 822.744 579.484 786.313C579.692 771.52 582.166 755.563 579.488 740.992C578.144 733.676 573.88 727.143 571.204 720.265C567.17 709.898 563.918 699.106 561.16 688.332C555.521 666.304 551.788 642.3 542.121 621.648C539.452 613.745 534.301 603.511 536.103 595.032C536.37 593.771 537.016 592.445 538.178 591.809C539.59 591.036 541.101 591.05 542.583 591.61C547.864 593.606 550.381 602.102 552.444 606.89C559.66 602.477 566.925 598.675 574.848 595.666C573.741 585.853 571.856 576.208 570.087 566.5C569.117 561.181 566.985 552.513 570.489 547.837C571.685 546.228 573.484 545.175 575.473 544.921C577.716 544.627 579.952 545.419 581.669 546.857C588.963 552.966 592.759 580.018 593.645 589.569C597.759 588.274 602.304 587.678 606.548 586.832Z"/>
	<path fill="#F6F5F8" d="M574.848 595.666C576.408 603.946 579.97 621.989 575.32 629.17C574.191 630.913 572.538 632.019 570.484 632.351C568.437 632.682 566.699 632.221 565.053 630.977C560.896 627.835 553.237 611.887 552.444 606.89C559.66 602.477 566.925 598.675 574.848 595.666Z"/>
	<path fill="#F6F5F8" d="M652.005 583.101C654.16 588.185 650.48 599.172 648.463 604.084C646.926 607.827 644.437 613.343 640.648 615.16C639.678 615.625 638.675 615.664 637.693 615.274C635.616 614.448 634.555 612.065 633.799 610.12C631.176 603.379 629.799 593.961 630.021 586.771C637.382 585.63 644.718 584.684 652.005 583.101Z"/>
	<path fill="#F6F5F8" d="M606.548 586.832C608.961 593.722 609.271 607.202 606.298 613.889C605.646 615.355 604.948 616.274 603.585 617.156C602.205 617.302 601.849 617.373 600.648 616.52C595.658 612.977 594.156 595.303 593.645 589.569C597.759 588.274 602.304 587.678 606.548 586.832Z"/>
	<path fill="#F6F5F8" d="M332.418 172.757C353.233 167.501 376.663 166.979 395.653 178.372C400.2 181.101 404.344 184.366 408.36 187.815L406.755 188.509C415.048 195.774 423.868 201.564 434.619 204.465C455.96 210.225 482.793 202.529 499.194 221.134C502.868 225.302 505.307 230.352 505.565 235.964C505.893 243.075 502.615 249.655 497.788 254.689C485.922 267.064 465.713 270.887 449.281 271.057C437.858 271.175 426.241 269.759 415.397 266.077C401.828 261.469 379.885 246.199 366.562 248.354L367.248 249.393C351.084 252.742 343.871 257.14 329.326 263.032C325.433 264.609 321.389 265.573 317.497 267.055C295.722 272.736 260.239 267.954 240.05 259.183C231.486 255.462 222.772 249.55 219.398 240.429C217.617 235.617 217.568 230.154 219.909 225.522C221.308 222.753 223.347 220.508 225.734 218.555C244.283 203.379 265.605 216.465 285.047 208.666C303.654 201.203 306.268 181.12 332.418 172.757Z"/>
	<path d="M332.418 172.757C353.233 167.501 376.663 166.979 395.653 178.372C400.2 181.101 404.344 184.366 408.36 187.815L406.755 188.509C387.068 173.821 369.97 168.221 345.202 171.788C305.768 177.468 307.722 202.576 285.789 210.189C267.643 216.487 236.852 204.729 223.923 222.783C220.894 227.1 219.746 232.462 220.742 237.642C222.229 245.096 227.786 250.205 233.926 254.094C255.041 267.472 292.766 271.076 316.833 265.467C335.088 261.213 347.485 250.818 366.562 248.354L367.248 249.393C351.084 252.742 343.871 257.14 329.326 263.032C325.433 264.609 321.389 265.573 317.497 267.055C295.722 272.736 260.239 267.954 240.05 259.183C231.486 255.462 222.772 249.55 219.398 240.429C217.617 235.617 217.568 230.154 219.909 225.522C221.308 222.753 223.347 220.508 225.734 218.555C244.283 203.379 265.605 216.465 285.047 208.666C303.654 201.203 306.268 181.12 332.418 172.757Z"/>
	<path fill="#F6F5F8" d="M332.418 172.757C336.799 161.679 367.698 146.785 379.11 141.844C440.624 115.009 510.313 113.881 572.664 138.709C603.984 151.144 630.305 169.694 653.989 193.588C660.743 200.401 668.596 208.46 672.763 217.147C645.906 204.277 623.634 201.23 594.177 205.919C582.445 207.787 570.827 209.719 559.006 207.232C542.409 203.739 528.558 191.873 513.028 185.379C478.812 171.071 445.054 176.959 411.987 190.683L408.36 187.815C404.344 184.366 400.2 181.101 395.653 178.372C376.663 166.979 353.233 167.501 332.418 172.757Z"/>
	<path fill="#F6F5F8" d="M542.121 621.648C551.788 642.3 555.521 666.304 561.16 688.332C563.918 699.106 567.17 709.898 571.204 720.265C573.88 727.143 578.144 733.676 579.488 740.992C582.166 755.563 579.692 771.52 579.484 786.313C578.671 822.744 578.185 859.182 578.028 895.622C569.34 896.207 560.546 896.002 551.843 896.007L511.432 896.007C511.401 880.279 513.749 864.189 515.109 848.505L522.465 761.275L528.78 683.222C529.873 669.354 530.167 652.115 532.994 638.764C534.223 632.96 538.938 626.666 542.121 621.648Z"/>
	<path fill="#F6F5F8" d="M367.248 249.393C369.633 252.339 371.66 256.003 374.593 258.411C386.787 268.423 412.266 273.818 409.961 294.088C409.162 301.118 405.148 306.832 399.645 311.059C382.444 324.27 356.308 327.903 335.821 333.822C326.628 324.705 317.189 319.3 304.499 316.499C300.785 315.679 296.823 315.392 293.191 314.368C296.507 298.778 308.032 279.569 317.497 267.055C321.389 265.573 325.433 264.609 329.326 263.032C343.871 257.14 351.084 252.742 367.248 249.393Z"/>
	<path fill="#E7BFA1" d="M482.496 266.379C482.661 280.299 476.731 316.421 486.483 325.93C488.494 327.89 491.077 328.95 493.894 328.86C497.576 328.742 500.904 326.724 503.233 323.948C507.791 318.516 509.935 308.093 512.168 301.427C516.847 287.905 521.728 274.454 526.811 261.078C530.338 251.657 533.486 239.601 539.454 231.477C541.831 228.241 545.023 225.626 549.094 225.027C551.932 224.609 554.932 225.311 557.167 227.139C559.917 229.386 561.249 232.879 561.447 236.354C562.006 246.162 544.09 299.628 540.266 311.337C538.046 318.132 534.738 325.411 533.888 332.515C533.513 335.659 533.894 340.226 536.56 342.393C537.516 343.17 538.432 343.31 539.645 343.155C543.999 342.6 548.124 336.842 550.314 333.347C552.928 329.171 554.731 324.372 556.875 319.939C563.12 307.028 577.677 276.325 585.542 266.888C587.456 264.591 590.911 261.546 593.966 261.008C596.926 260.486 600.515 261.611 602.84 263.467C605.501 265.591 607.258 268.506 607.474 271.943C608.019 280.586 600.238 290.761 596.609 298.29C588.643 314.814 571.616 350.667 571.77 368.052C571.808 372.345 573.006 376.489 576.296 379.423C577.847 380.806 579.694 381.625 581.795 381.511C598.726 380.588 621.243 329.121 636.826 341.281C638.797 342.819 640.292 345.041 640.436 347.585C640.557 349.713 639.795 351.819 638.801 353.667C636.546 357.86 633.16 361.829 630.417 365.741C625.157 373.142 620.098 380.684 615.247 388.36C604.586 405.288 594.861 422.897 587.359 441.472C580.657 458.066 575.483 475.185 567.44 491.227C560.604 504.86 548.238 515.505 542.781 529.871C537.407 544.017 536.545 566.376 535.55 581.755C509.172 585.075 482.907 590.51 456.742 595.226C446.731 597.03 429.813 601.031 420.165 600.783C423.681 583.39 426.168 565.795 429.129 548.302C430.814 538.353 433.121 528.506 434.599 518.521C439.648 484.422 429.844 463.88 407.113 439.015C400.046 431.284 392.395 423.795 386.139 415.387C378.663 405.337 375.183 391.557 365.856 383.01C357.537 375.387 344.172 374.406 337.536 365.329L337.168 364.816C334.217 366.365 330.869 367.921 327.608 368.615L327.817 368.061C330.736 365.118 334.915 363.827 337.846 360.599C338.404 357.551 338.88 354.568 340.068 351.689C344.01 348.042 348.589 347.194 353.845 347.422C368.53 348.06 380.352 354.719 390.053 365.471C397.134 373.318 406.369 387.755 417.765 388.555C421.344 388.806 424.507 387.407 427.108 385.005C446.096 367.466 453.556 297.594 454.631 272.77C464.16 271.145 473.252 269.222 482.496 266.379Z"/>
	<path fill="#F26969" d="M430.519 388.516C436.915 388.383 443.28 392.843 448.665 395.947C472.467 389.121 496.364 388.632 519.994 396.588C534.326 401.413 559.834 414.183 566.879 428.41C558.011 423.793 551.097 415.53 542.573 410.059C517.123 393.724 487.071 390.22 457.876 396.579C456.213 396.955 454.575 397.48 452.937 397.957C459.117 402.572 464.765 407.858 469.779 413.719C485.789 432.627 492.685 459.299 490.543 483.738C490.153 488.181 488.2 499.594 484.779 502.48C483.384 499.228 487.521 485.705 487.886 481.123C489.338 462.077 485.095 443.029 475.698 426.4C470.721 417.699 464.025 409.294 455.921 403.304C450.952 399.632 445.15 396.76 439.577 394.109C437.164 392.962 434.285 391.922 432.072 390.467C431.328 389.978 430.951 389.269 430.519 388.516Z"/>
	<path fill="#F6F5F8" d="M420.165 600.783C429.813 601.031 446.731 597.03 456.742 595.226C482.907 590.51 509.172 585.075 535.55 581.755C534.251 593.632 533.039 605.518 531.913 617.412C531.303 624.51 531.184 631.845 530.227 638.891C525.074 696.35 520.248 753.838 515.747 811.351C513.388 839.593 510.325 867.741 508.438 896.025L371.257 895.994C377.64 849.98 385.896 804.158 393.525 758.34C399.255 723.92 404.051 689.447 410.676 655.169C413.156 636.924 416.973 618.911 420.165 600.783Z"/>
	<path fill="#FEAE8D" d="M420.165 600.783C429.813 601.031 446.731 597.03 456.742 595.226C482.907 590.51 509.172 585.075 535.55 581.755C534.251 593.632 533.039 605.518 531.913 617.412C531.303 624.51 531.184 631.845 530.227 638.891C529.896 638.702 529.609 638.396 529.235 638.325C526.736 637.853 509.168 641.083 505.659 641.59L445.342 650.306C433.817 651.972 422.252 653.923 410.676 655.169C413.156 636.924 416.973 618.911 420.165 600.783Z"/>
	<path fill="#F6F5F8" d="M726.737 228.211C744.063 227.626 763.815 232.833 776.515 245.164C781.303 249.813 785.946 255.825 792.435 258.12C804.936 262.54 820.226 255.771 832.085 262.355C837.053 265.113 839.051 269.313 840.663 274.476C838.714 280.664 835.344 285.169 830.273 289.139C814.919 301.157 791.051 307.245 771.799 304.393C764.765 303.351 758.034 300.561 751 299.737C750.793 299.712 750.585 299.694 750.378 299.673C741.705 300.007 733.559 302.614 725.038 303.927C701.604 307.539 663.159 303.802 643.742 289.465C639.505 286.337 635.589 282.153 634.955 276.701C634.457 272.413 636.2 268.388 638.986 265.199C644.288 259.13 655.157 255.593 663.033 254.939C667.175 254.595 671.36 254.844 675.508 254.585C685.851 253.939 690.821 246.833 697.029 239.77C704.819 230.907 715.48 228.929 726.737 228.211Z"/>
	<path fill="#F6F5F8" d="M326.582 366.67C306.431 375.373 280.007 376.508 259.789 367.328C250.666 363.186 241.832 357.397 231.815 355.648C216.746 353.015 200.733 356.994 185.554 357.449C171.959 357.856 151.334 357.991 140.949 347.818C137.597 344.533 135.284 340.026 135.434 335.257C135.588 330.358 138.074 326.441 141.651 323.249C145.208 320.075 149.612 318.315 154.057 316.777C181.586 307.252 198.666 330.693 225.238 329.053C248.009 327.648 267.809 314.363 291.183 315.938C305.359 316.894 323.022 321.693 332.642 332.915C337.669 338.78 338.836 344.86 338.283 352.321C335.988 359.217 332.93 362.976 326.582 366.67Z"/>
	<path fill="#F6F5F8" d="M713.928 328.44C714.644 328.861 715.101 329.006 715.56 329.728C719.114 335.313 716.079 354.35 714.682 360.637C708.128 390.12 687.355 410.881 662.019 425.681C652.5 431.242 642.541 435.847 633.224 441.788C632.73 441.915 632.311 441.815 631.81 441.758L631.509 441.165C639.115 431.075 659.342 424.614 670.262 417.291C692.926 402.093 710.552 379.381 713.44 351.619C714.192 344.387 712.105 336.48 713.685 329.42C713.759 329.092 713.847 328.767 713.928 328.44Z"/>
	<path fill="#F6F5F8" d="M706.969 506.024C707.836 505.982 708.631 506.022 709.477 506.21C713.142 507.024 716.581 509.366 718.546 512.567C721.553 517.467 722.043 524.054 720.479 529.511C718.579 536.139 714.443 539.969 708.576 543.099L707.41 541.878C708.743 538.266 716.033 535.236 718.185 528.93C723.149 514.39 709.734 512.822 707.213 506.708C707.121 506.484 707.05 506.252 706.969 506.024Z"/>
</svg>
