<?xml version="1.0" encoding="utf-8" ?>
<svg xmlns="http://www.w3.org/2000/svg" xmlns:xlink="http://www.w3.org/1999/xlink" width="1024" height="1024">
	<path fill="#F6F6F6" d="M0 0L1024 0L1024 1024L0 1024L0 0ZM648.932 87.442C636.525 87.4631 624.163 90.1505 612.597 94.5513C595.658 100.997 577.614 114.287 570.08 131.265C564.412 144.037 564.199 161.873 569.131 174.879C564.806 181.017 560.861 187.478 557.029 193.934C552.983 200.928 549.585 208.292 546.007 215.532C543.937 213.004 541.586 210.419 539.051 208.359C539.084 200.626 538.388 193.775 536.128 186.353C528.695 167.578 516.758 152.244 497.796 144.08C485.334 138.715 472.312 136.207 458.784 135.831C460.328 157.624 468.465 176.376 485.181 190.859C500.346 204 517.804 208.701 537.455 208.571C539.743 211.748 542.29 214.679 544.844 217.643L544.663 218.111C542.149 224.48 538.836 230.576 536.068 236.846C531.156 247.975 526.655 259.371 522.252 270.71C513.747 292.613 507.37 315.507 500.919 338.077C498.902 336.076 496.704 334.279 494.538 332.444L494.485 332.088C493.861 303.739 484.557 274.437 463.637 254.512C439.424 231.45 412.952 223.508 380.184 223.946C385.548 259.274 394.935 289.184 425.222 311.533C446.971 327.582 468.874 328.746 493.911 334.713C495.932 336.617 497.911 338.669 500.078 340.403C500.39 343.955 493.063 369.357 491.664 375.383C488.614 388.528 486.026 401.951 483.803 415.265C482.693 421.911 480.832 439.71 478.84 444.446L472.497 439.452C469.406 409.192 456.115 381.862 433.049 361.908C407.259 339.598 376.639 331.297 343.022 333.822C343.508 336.465 343.822 339.135 344.254 341.788C349.709 375.287 365.449 402.81 393.151 422.771C375.351 425.486 357.096 427.356 339.444 430.788C342.165 447.673 341.149 465.018 341.098 482.075C340.95 506.444 341.005 530.813 341.265 555.181C332.07 562.55 322.41 569.561 313.425 577.157L313.026 744.325C309.785 739.877 298.213 723.754 293.354 722.797L292.596 722.962L292.315 723.657C294.694 728.483 300.093 733.033 303.674 737.131C307.341 741.299 310.597 745.813 313.395 750.608C313.472 765.717 313.609 780.899 313.216 796C305.498 796.062 297.764 796.597 290.277 798.614C288.481 780.743 284.83 764.18 278.898 747.237C277.378 742.895 276.264 737.77 273.366 734.095L272.588 733.864C271.859 734.706 271.867 734.799 271.919 735.881C272.168 741.048 277.168 750.945 278.831 756.396C283.056 770.242 286.13 784.978 287.099 799.425C255.62 807.442 242.338 818.059 221.839 842.215C210.72 834.907 200.017 832.488 186.774 835.166C175.286 837.489 164.941 844.771 158.593 854.588C153.678 862.187 151.426 870.76 151.158 879.739C138.547 881.529 127.857 887.539 120.173 897.77C114.067 905.901 109.963 917.271 111.562 927.533C111.729 928.562 111.929 929.584 112.163 930.6C112.007 930.618 111.851 930.637 111.694 930.654C106.503 931.193 101.024 930.875 95.7984 930.883L66.2449 930.907C61.5438 930.905 56.2285 930.374 51.6078 931.175C49.7865 931.49 48.4163 931.921 47.0887 933.257C46.8006 934.451 46.9948 934.948 47.4565 936.069C50.1659 938.476 53.7603 938.074 57.1629 938.074L624.965 938.006L816.15 937.862L876.769 937.95C883.781 937.939 891.278 938.632 898.207 938.189C899.949 938.077 901.898 937.872 903.141 936.508C903.597 936.007 903.837 935.227 903.8 934.547C903.727 933.202 903.118 932.511 902.014 931.841C900.01 930.624 875.079 930.358 871.211 930.516C848 926.256 833.47 916.69 816.059 901.377C812.92 891.907 808.944 883.245 803.969 874.622C825.079 855.638 842.563 841.394 870.937 834.107C876.19 832.758 881.709 832.598 887 831.358C887.679 830.42 887.491 830.577 887.34 829.521C886.557 828.99 885.955 828.813 885.023 828.801C880.664 828.741 875.833 830.079 871.57 831.026C844.161 837.112 821.917 853.054 802.363 872.459C787.683 855.34 773.401 847.863 751.133 845.579C755.065 839.366 758.397 832.745 762.334 826.508C771.673 811.79 782.619 798.155 794.971 785.855C797.765 783.022 804.449 778.046 806.068 774.891L805.616 774.002L806.112 774.305L805.612 773.308L804.51 773.34C801.039 775.158 798.129 778.522 795.325 781.251C780.501 795.684 766.905 812.365 756.8 830.446C757.904 823.69 758.317 816.964 758.262 810.12C758.216 804.402 756.977 779.916 753.883 776.877L752.981 776.931C750.069 782.796 763.419 820.668 746.921 845.388C739.999 845.605 732.806 846.587 726.179 848.58C719.611 838.412 714.066 833.587 703.22 828.181C704.889 818.525 707.775 809.119 711.81 800.189C713.941 795.426 716.198 790.457 718.936 786.018C720.919 782.802 723.35 779.863 725.08 776.502C725.402 775.877 725.255 775.566 725.194 774.885L724.398 774.232C723.936 774.346 723.749 774.359 723.304 774.658C717.802 778.363 706.747 803.224 704.621 810.213C702.649 816.697 701.811 823.427 700.045 829.962C699.721 820.038 699.935 810.038 699.902 800.106C699.871 790.908 699.335 781.337 700.15 772.179C701.688 754.887 710.098 733.604 717.914 718.303C720.902 712.455 725.583 707.646 728.602 701.886C729.309 700.537 729.259 699.866 728.822 698.513L727.836 698.749C719.104 706.396 709.054 728.749 705.073 739.702C703.112 745.098 701.661 750.727 700.091 756.248L699.778 542.024L699.682 481.89C699.669 472.748 700.162 463.502 699.741 454.376C698.755 453.304 698.436 453.53 696.962 453.425C692.154 455.015 651.99 454.069 644.154 453.984C645.394 451.206 648.187 446.62 647.257 443.55C644.663 441.627 594.454 421.255 592.17 421.415C591.193 421.483 590.472 422.385 589.988 423.158C584.163 432.459 580.442 448.997 574.935 458.7C567.304 458.247 559.725 457.837 552.076 458.097C543.416 457.61 534.701 457.841 526.029 457.783L480.974 457.458C482.071 447.761 488.68 396.39 492.35 391.504C495.761 391.714 499.018 390.876 502.279 389.996L502.608 390.032C508.295 393.494 513.592 397.573 519.35 400.932C538.263 411.967 559.265 416.004 580.829 411.8C611.818 405.76 641.395 386.899 658.983 360.608C651.184 355.469 642.233 351.661 633.507 348.355C603.36 336.931 571.178 335.573 541.458 349.155C527.615 355.482 517.571 364.65 507.896 376.141C504.938 379.654 501.441 383.646 499.81 387.99C497.317 388.646 494.77 388.935 492.22 389.281C495.216 368.413 501.799 347.7 507.437 327.425C510.073 317.946 513.324 303.331 517.69 294.837C518.425 293.407 518.838 293.529 520.32 293.059C522.731 292.68 525.044 291.947 527.383 291.266C528.063 292.045 528.845 292.678 529.71 293.243C534.397 296.301 539.981 298.263 545.255 300.047C563.195 306.118 580.344 308.434 599.136 304.668C617.572 300.974 637.919 290.203 651.145 276.815C656.601 271.292 660.976 265.114 665.276 258.69C657.4 253.385 648.521 249.935 639.649 246.689C619.273 242.137 601.129 240.567 580.863 246.838C573.714 249.05 566.862 251.828 560.535 255.86C547.34 264.27 537.566 275.236 529.158 288.246L528.813 288.422C525.465 289.397 522.158 290.299 518.732 290.958C529.693 257.465 543.727 225.058 560.654 194.148C563.941 188.567 567.429 183.097 570.733 177.521L570.867 177.504C571.376 177.486 571.886 177.458 572.393 177.407C597.276 174.923 616.019 169.54 632.285 149.581C646.038 132.705 651.011 108.782 648.932 87.442ZM662.466 293.724L662.84 294.69C668.223 296.23 699.557 295.493 707.368 295.171L707.167 294C702.472 292.866 668.84 293.325 662.466 293.724ZM684.526 306.732L685.251 308.047C693.707 309.474 704.292 308.16 713 308.093C721.178 308.029 729.924 308.743 738.024 307.774C737.113 306.679 736.877 306.846 735.45 306.718C729.161 306.154 722.429 306.612 716.1 306.615C705.603 306.62 695.014 306.376 684.526 306.732ZM797.993 479.76C798.346 480.099 798.624 480.539 799.051 480.777C800.51 481.59 837.623 480.87 842.212 480.777C844.063 480.725 845.912 480.611 847.755 480.434C846.501 479.159 844.898 479.379 843.161 479.369L814.239 479.33C809.046 479.333 803.054 478.77 797.993 479.76ZM823.755 492.238C812.211 492.416 800.665 492.511 789.119 492.522C783.785 492.537 778.148 492.132 772.853 492.516C771.568 492.609 770.755 492.614 769.722 493.394C771.261 494.55 773.809 494.24 775.712 494.221L809.516 494.054C815.513 494.041 822.661 494.75 828.519 493.626L828.859 493.127C827.178 492.044 825.662 492.155 823.755 492.238ZM51.8132 496.121L51.8735 497.761C52.1824 497.948 52.4466 498.249 52.8003 498.322C57.0311 499.195 68.9392 498.296 74.0193 498.291L127.768 498.434L127.646 496.941C125.292 495.37 60.4508 495.909 51.8132 496.121ZM84.9307 516.655C85.141 517.465 85.0123 518.039 85.8435 518.424C86.8476 518.889 87.7263 518.904 88.8093 518.919C107.064 519.173 125.417 518.655 143.687 518.629C156.713 518.61 169.947 519.229 182.943 518.676L183.514 517.49L182.982 516.65C178.591 516.037 173.7 516.423 169.247 516.42L143.052 516.425L105.273 516.487C98.5572 516.502 91.6211 516.168 84.9307 516.655ZM235.117 694.739C234.969 695.412 234.436 696.813 234.756 697.411C235.65 699.078 238.9 700.956 240.412 702.201C244.142 705.272 247.655 709.764 251.551 712.446C252.261 712.935 252.888 713.073 253.703 713.254L254.307 711.743C252.006 707.034 240.094 696.469 235.117 694.739ZM873.859 734.534C866.277 737.267 834.035 750.113 830.553 755.902C830.482 756.02 830.443 756.154 830.388 756.28C830.826 757.299 831.015 757.615 832.205 757.906C832.374 757.947 832.552 757.907 832.725 757.908C841.481 751.93 851.165 746.882 860.956 742.805C865.151 741.059 873.598 739.082 876.558 735.772L876.575 735.028C875.519 734.493 875.035 734.408 873.859 734.534ZM922.32 931.025C921.431 932.403 920.861 933.344 920.659 934.986C921.129 936.473 921.322 936.599 922.532 937.61C927.612 938.96 949.367 937.992 955.845 937.984C973.477 937.963 991.348 938.586 1008.95 937.989C1010 936.829 1010.8 935.694 1010.69 934.033C1010.59 932.683 1010.27 932.41 1009.4 931.479C1006.24 930.328 932.344 930.84 922.32 931.025Z"/>
	<path fill="#00B4F3" d="M589.412 151.168C593.699 145.874 619.992 118.279 620.76 115.308L620.19 115.135C620.053 115.927 597.428 140.55 594.983 142.67L594.172 142.424C591.906 137.647 595.033 127.351 594.811 121.737L594.466 121.945C592.353 128.131 592.43 136.615 593.27 142.979C593.328 143.42 593.445 143.875 593.356 144.311C592.793 147.086 573.15 169.921 569.762 174.411L569.131 174.879C564.199 161.873 564.412 144.037 570.08 131.265C577.614 114.287 595.658 100.997 612.597 94.5513C624.163 90.1505 636.525 87.4631 648.932 87.442C651.011 108.782 646.038 132.705 632.285 149.581C616.019 169.54 597.276 174.923 572.393 177.407C571.886 177.458 571.376 177.486 570.867 177.504C572.533 174.531 574.121 171.576 576.259 168.907C582.708 168.98 590.913 169.265 597.148 167.714C599.502 167.128 601.912 167.549 604.171 166.791L603.519 166.067L604.135 166.944C602.643 166.004 580.323 168.169 576.287 168.363C580.647 163.013 584.825 157.501 589.064 152.054C598.276 151.119 610.304 150.52 618.695 146.423L618.692 146.409L617.595 146.804C616.678 146.249 613.036 147.501 611.857 147.786C604.512 149.564 596.886 150.127 589.412 151.168Z"/>
	<path fill="#12578B" d="M569.762 174.411C573.15 169.921 592.793 147.086 593.356 144.311C593.445 143.875 593.328 143.42 593.27 142.979C592.43 136.615 592.353 128.131 594.466 121.945L594.811 121.737C595.033 127.351 591.906 137.647 594.172 142.424L594.983 142.67C597.428 140.55 620.053 115.927 620.19 115.135L620.76 115.308C619.992 118.279 593.699 145.874 589.412 151.168C596.886 150.127 604.512 149.564 611.857 147.786C613.036 147.501 616.678 146.249 617.595 146.804L618.692 146.409L618.695 146.423C610.304 150.52 598.276 151.119 589.064 152.054C584.825 157.501 580.647 163.013 576.287 168.363C580.323 168.169 602.643 166.004 604.135 166.944L603.519 166.067L604.171 166.791C601.912 167.549 599.502 167.128 597.148 167.714C590.913 169.265 582.708 168.98 576.259 168.907C574.121 171.576 572.533 174.531 570.867 177.504L570.733 177.521C570.885 176.142 570.427 175.563 569.762 174.411Z"/>
	<path fill="#00B4F3" d="M458.784 135.831C472.312 136.207 485.334 138.715 497.796 144.08C516.758 152.244 528.695 167.578 536.128 186.353C538.388 193.775 539.084 200.626 539.051 208.359C534.78 204.734 531.104 200.143 527.012 196.263C521.54 191.076 515.452 186.519 510.305 181C508.975 172.178 506.562 160.519 503.576 152.261L502.959 152.254C504.838 161.612 507.784 170.679 509.41 180.102C503.698 174.836 491.832 164.004 485.243 161.031L485.807 161.498L485.673 161.871C490.727 164.475 504.821 177.137 509.814 181.554C502.432 182.81 493.741 181.612 486.167 181.703C494.044 182.279 502.365 183.205 510.232 182.394L521.315 192.494L522.456 193.618C527.797 197.668 533.391 203.285 537.455 208.571C517.804 208.701 500.346 204 485.181 190.859C468.465 176.376 460.328 157.624 458.784 135.831ZM520.113 170.92C520.205 174.985 522.151 179.339 523.717 183.069L524.628 183.742C523.492 179.604 522.329 174.585 520.113 170.92Z"/>
	<path fill="#12578B" d="M521.315 192.494L510.232 182.394C502.365 183.205 494.044 182.279 486.167 181.703C493.741 181.612 502.432 182.81 509.814 181.554C504.821 177.137 490.727 164.475 485.673 161.871L485.807 161.498L485.243 161.031C491.832 164.004 503.698 174.836 509.41 180.102C507.784 170.679 504.838 161.612 502.959 152.254L503.576 152.261C506.562 160.519 508.975 172.178 510.305 181C515.452 186.519 521.54 191.076 527.012 196.263C531.104 200.143 534.78 204.734 539.051 208.359C541.586 210.419 543.937 213.004 546.007 215.532L544.844 217.643C542.29 214.679 539.743 211.748 537.455 208.571C533.391 203.285 527.797 197.668 522.456 193.618L521.315 192.494Z"/>
	<path fill="#1876AF" d="M524.628 183.742L523.717 183.069C522.151 179.339 520.205 174.985 520.113 170.92C522.329 174.585 523.492 179.604 524.628 183.742Z"/>
	<path fill="#34234D" d="M569.762 174.411C570.427 175.563 570.885 176.142 570.733 177.521C567.429 183.097 563.941 188.567 560.654 194.148C543.727 225.058 529.693 257.465 518.732 290.958C522.158 290.299 525.465 289.397 528.813 288.422L528.725 290.765L527.383 291.266C525.044 291.947 522.731 292.68 520.32 293.059C518.838 293.529 518.425 293.407 517.69 294.837C513.324 303.331 510.073 317.946 507.437 327.425C501.799 347.7 495.216 368.413 492.22 389.281C494.77 388.935 497.317 388.646 499.81 387.99C501.022 388.318 501.388 388.311 502.052 389.457C502.15 389.626 502.203 389.816 502.279 389.996C499.018 390.876 495.761 391.714 492.35 391.504C488.68 396.39 482.071 447.761 480.974 457.458C480.129 464.594 476.85 486.767 478.518 492.572L478.399 493.079L477.857 496.435C475.419 507.511 476.49 543.276 477.553 556.089C477.438 556.144 477.332 556.222 477.209 556.254C475.881 556.597 475.427 556.509 474.203 556.042C473.25 536.328 473.258 516.58 474.225 496.866C474.961 483.712 475.805 470.548 477.537 457.483C477.976 454.067 479.173 449.202 478.198 445.905L478.84 444.446C480.832 439.71 482.693 421.911 483.803 415.265C486.026 401.951 488.614 388.528 491.664 375.383C493.063 369.357 500.39 343.955 500.078 340.403C497.911 338.669 495.932 336.617 493.911 334.713L493.657 333.276L494.538 332.444C496.704 334.279 498.902 336.076 500.919 338.077C507.37 315.507 513.747 292.613 522.252 270.71C526.655 259.371 531.156 247.975 536.068 236.846C538.836 230.576 542.149 224.48 544.663 218.111L544.844 217.643L546.007 215.532C549.585 208.292 552.983 200.928 557.029 193.934C560.861 187.478 564.806 181.017 569.131 174.879L569.762 174.411Z"/>
	<path fill="#00B4F3" d="M454.313 293.013C459.909 298.634 465.459 304.302 470.962 310.015C470.72 310.082 470.479 310.152 470.235 310.215C467.124 311.013 447.932 310.396 447.886 310.434L447.348 310.409C450.01 312.477 466.024 311.905 469.508 311.342C470.092 311.247 470.551 311.066 471.097 310.85C475.268 312.645 482.1 320.994 485.452 324.513C488.201 327.414 491.02 330.274 493.657 333.276L493.911 334.713C468.874 328.746 446.971 327.582 425.222 311.533C394.935 289.184 385.548 259.274 380.184 223.946C412.952 223.508 439.424 231.45 463.637 254.512C484.557 274.437 493.861 303.739 494.485 332.088C491.816 329.859 489.38 327.076 486.923 324.606C482.543 319.47 477.44 314.903 472.63 310.168C467.122 304.664 461.683 299.092 456.313 293.454C459.196 284.288 460.702 273.807 462.051 264.294C458.629 269.4 457.727 285.886 455.59 292.938C451.331 288.577 446.998 284.289 442.592 280.076C442.616 275.072 440.613 255.795 438.709 251.881C438.217 259.061 441.162 271.254 441.61 279.288C437.525 274.665 418.456 255.304 414.121 252.82C415.686 256.087 448.419 287.193 453.417 291.828C445.229 291.136 422.914 285.313 417.784 285.804C420.158 286.925 423.523 287.081 426.118 287.636C435.51 289.646 444.771 291.841 454.313 293.013ZM478.025 288.752C477.967 296.808 478.775 305.02 478.125 313.036C478.278 313.343 478.464 313.865 478.705 314.101C479.302 310.219 480.209 292.418 478.578 289.172L478.025 288.752Z"/>
	<path fill="#00B4F3" d="M529.158 288.246C537.566 275.236 547.34 264.27 560.535 255.86C566.862 251.828 573.714 249.05 580.863 246.838C601.129 240.567 619.273 242.137 639.649 246.689C648.521 249.935 657.4 253.385 665.276 258.69C660.976 265.114 656.601 271.292 651.145 276.815C637.919 290.203 617.572 300.974 599.136 304.668C580.344 308.434 563.195 306.118 545.255 300.047C539.981 298.263 534.397 296.301 529.71 293.243C528.845 292.678 528.063 292.045 527.383 291.266L528.725 290.765C542.017 285.56 558.12 282.339 572.098 279.662C579.856 284.125 595.206 287.611 604.329 290.285L604.377 290.024C595.023 284.668 583.596 284.952 574.162 279.848L573.523 279.498C582.713 276.854 592.035 274.856 601.372 272.812C608.941 271.156 616.892 269.977 623.928 266.63C610.989 269.69 598.033 272.674 585.059 275.584C590.287 269.339 601.015 257.699 604.111 250.783C601.002 252.913 587.765 271.135 584.229 275.415C577.93 277.81 570.93 278.815 564.342 280.162C567.165 273.63 570.867 267.458 573.06 260.676C570.07 264.491 565.078 275.641 563.529 280.403C555.496 282.232 536.02 288.282 529.158 288.246ZM543.804 287.999C548.051 291.868 567.379 298.981 573.559 299.959C568.618 296.245 558.732 294.064 552.745 291.737C549.847 290.61 546.745 288.865 543.804 287.999Z"/>
	<path fill="#12578B" d="M528.813 288.422L529.158 288.246C536.02 288.282 555.496 282.232 563.529 280.403C565.078 275.641 570.07 264.491 573.06 260.676C570.867 267.458 567.165 273.63 564.342 280.162C570.93 278.815 577.93 277.81 584.229 275.415C587.765 271.135 601.002 252.913 604.111 250.783C601.015 257.699 590.287 269.339 585.059 275.584C598.033 272.674 610.989 269.69 623.928 266.63C616.892 269.977 608.941 271.156 601.372 272.812C592.035 274.856 582.713 276.854 573.523 279.498L574.162 279.848C583.596 284.952 595.023 284.668 604.377 290.024L604.329 290.285C595.206 287.611 579.856 284.125 572.098 279.662C558.12 282.339 542.017 285.56 528.725 290.765L528.813 288.422Z"/>
	<path fill="#12578B" d="M470.962 310.015C465.459 304.302 459.909 298.634 454.313 293.013C444.771 291.841 435.51 289.646 426.118 287.636C423.523 287.081 420.158 286.925 417.784 285.804C422.914 285.313 445.229 291.136 453.417 291.828C448.419 287.193 415.686 256.087 414.121 252.82C418.456 255.304 437.525 274.665 441.61 279.288C441.162 271.254 438.217 259.061 438.709 251.881C440.613 255.795 442.616 275.072 442.592 280.076C446.998 284.289 451.331 288.577 455.59 292.938C457.727 285.886 458.629 269.4 462.051 264.294C460.702 273.807 459.196 284.288 456.313 293.454C461.683 299.092 467.122 304.664 472.63 310.168C477.44 314.903 482.543 319.47 486.923 324.606C489.38 327.076 491.816 329.859 494.485 332.088L494.538 332.444L493.657 333.276C491.02 330.274 488.201 327.414 485.452 324.513C482.1 320.994 475.268 312.645 471.097 310.85L470.962 310.015Z"/>
	<path fill="#12578B" d="M573.559 299.959C567.379 298.981 548.051 291.868 543.804 287.999C546.745 288.865 549.847 290.61 552.745 291.737C558.732 294.064 568.618 296.245 573.559 299.959Z"/>
	<path fill="#1876AF" d="M478.705 314.101C478.464 313.865 478.278 313.343 478.125 313.036C478.775 305.02 477.967 296.808 478.025 288.752L478.578 289.172C480.209 292.418 479.302 310.219 478.705 314.101Z"/>
	<path fill="#140016" d="M707.368 295.171C699.557 295.493 668.223 296.23 662.84 294.69L662.466 293.724C668.84 293.325 702.472 292.866 707.167 294L707.368 295.171Z"/>
	<path fill="#140016" d="M738.024 307.774C729.924 308.743 721.178 308.029 713 308.093C704.292 308.16 693.707 309.474 685.251 308.047L684.526 306.732C695.014 306.376 705.603 306.62 716.1 306.615C722.429 306.612 729.161 306.154 735.45 306.718C736.877 306.846 737.113 306.679 738.024 307.774Z"/>
	<path fill="#12578B" d="M470.962 310.015L471.097 310.85C470.551 311.066 470.092 311.247 469.508 311.342C466.024 311.905 450.01 312.477 447.348 310.409L447.886 310.434C447.932 310.396 467.124 311.013 470.235 310.215C470.479 310.152 470.72 310.082 470.962 310.015Z"/>
	<path fill="#00B4F3" d="M393.151 422.771C365.449 402.81 349.709 375.287 344.254 341.788C343.822 339.135 343.508 336.465 343.022 333.822C376.639 331.297 407.259 339.598 433.049 361.908C456.115 381.862 469.406 409.192 472.497 439.452C460.049 429.427 448.723 418.103 436.724 407.569C437.669 402.977 438.886 383.307 438.214 378.74L437.895 378.66C436.371 386.018 436.37 400.075 436.588 407.815C430.719 402.5 424.524 397.334 418.92 391.746C418.979 388.171 414.22 362.762 412.75 360.203C412.989 370.482 416.788 381.205 418.286 391.448C414.039 387.344 383.829 359.493 380.582 358.504C383.597 362.769 389.262 366.636 393.207 370.176C399.556 375.873 405.656 381.81 412.222 387.266C404.564 386.385 396.878 385.593 389.242 384.543C385.979 384.095 382.657 382.672 379.38 382.799L379.039 383.299C388.472 386.395 403.035 387.173 413.087 388.1C420.591 394.324 427.647 401.087 434.935 407.559C427.207 407.803 419.475 408.077 411.742 407.958C405.386 407.86 399.025 407.397 392.669 407.601C404.571 410.273 423.625 408.842 436.04 408.498C443.079 414.374 449.747 420.622 456.339 426.991C453.154 427.116 427.674 427.134 427.115 427.499C437.258 428.8 447.397 428.7 457.574 427.947C462.932 432.475 469.055 437.145 473.513 442.571C454.497 442.699 435.251 440.473 417.347 433.736C410.862 431.296 404.741 427.841 398.183 425.624L397.657 425.452L396.861 423.246C395.465 422.39 394.756 422.669 393.151 422.771Z"/>
	<path fill="#00B4F3" d="M499.81 387.99C501.441 383.646 504.938 379.654 507.896 376.141C517.571 364.65 527.615 355.482 541.458 349.155C571.178 335.573 603.36 336.931 633.507 348.355C642.233 351.661 651.184 355.469 658.983 360.608C641.395 386.899 611.818 405.76 580.829 411.8C559.265 416.004 538.263 411.967 519.35 400.932C513.592 397.573 508.295 393.494 502.608 390.032C508.633 386.627 523.618 384.729 530.788 383.258C536.678 386.668 543.288 389.174 549.513 391.907C556.732 395.076 563.899 398.547 571.294 401.28C567.361 397.481 538.624 386.128 531.823 383.078C541.179 381.647 550.293 379.39 559.559 377.566C569.374 375.634 602.551 369.912 609.128 366.47C604.987 366.672 600.585 368.133 596.509 368.974C585.715 371.201 574.968 373.693 564.132 375.685C567.637 371.572 582.967 354.206 584.22 351.163C576.139 357.727 569.924 367.948 562.889 375.718C552.456 378.605 541.712 380.364 531.057 382.191C534.862 377.635 553.583 355.656 555.201 351.557C555.553 350.665 555.46 350.732 556.146 350.024L556.134 350.008L555.629 350.746L555.539 350.479C551.446 354.882 547.883 359.902 544.17 364.633C539.459 370.623 534.626 376.517 529.673 382.309C520.325 384.393 509.333 387.427 499.81 387.99ZM569.507 378.005C574.053 381.418 594.704 390.793 600.434 392.456C597.49 389.412 574.34 379.4 569.507 378.005Z"/>
	<path fill="#12578B" d="M499.81 387.99C509.333 387.427 520.325 384.393 529.673 382.309C534.626 376.517 539.459 370.623 544.17 364.633C547.883 359.902 551.446 354.882 555.539 350.479L555.629 350.746L556.134 350.008L556.146 350.024C555.46 350.732 555.553 350.665 555.201 351.557C553.583 355.656 534.862 377.635 531.057 382.191C541.712 380.364 552.456 378.605 562.889 375.718C569.924 367.948 576.139 357.727 584.22 351.163C582.967 354.206 567.637 371.572 564.132 375.685C574.968 373.693 585.715 371.201 596.509 368.974C600.585 368.133 604.987 366.672 609.128 366.47C602.551 369.912 569.374 375.634 559.559 377.566C550.293 379.39 541.179 381.647 531.823 383.078C538.624 386.128 567.361 397.481 571.294 401.28C563.899 398.547 556.732 395.076 549.513 391.907C543.288 389.174 536.678 386.668 530.788 383.258C523.618 384.729 508.633 386.627 502.608 390.032L502.279 389.996C502.203 389.816 502.15 389.626 502.052 389.457C501.388 388.311 501.022 388.318 499.81 387.99Z"/>
	<path fill="#12578B" d="M436.724 407.569C448.723 418.103 460.049 429.427 472.497 439.452L478.84 444.446L478.198 445.905C476.456 445.14 474.987 443.757 473.513 442.571C469.055 437.145 462.932 432.475 457.574 427.947C447.397 428.7 437.258 428.8 427.115 427.499C427.674 427.134 453.154 427.116 456.339 426.991C449.747 420.622 443.079 414.374 436.04 408.498C423.625 408.842 404.571 410.273 392.669 407.601C399.025 407.397 405.386 407.86 411.742 407.958C419.475 408.077 427.207 407.803 434.935 407.559C427.647 401.087 420.591 394.324 413.087 388.1C403.035 387.173 388.472 386.395 379.039 383.299L379.38 382.799C382.657 382.672 385.979 384.095 389.242 384.543C396.878 385.593 404.564 386.385 412.222 387.266C405.656 381.81 399.556 375.873 393.207 370.176C389.262 366.636 383.597 362.769 380.582 358.504C383.829 359.493 414.039 387.344 418.286 391.448C416.788 381.205 412.989 370.482 412.75 360.203C414.22 362.762 418.979 388.171 418.92 391.746C424.524 397.334 430.719 402.5 436.588 407.815C436.37 400.075 436.371 386.018 437.895 378.66L438.214 378.74C438.886 383.307 437.669 402.977 436.724 407.569Z"/>
	<path fill="#1876AF" d="M600.434 392.456C594.704 390.793 574.053 381.418 569.507 378.005C574.34 379.4 597.49 389.412 600.434 392.456Z"/>
	<path fill="#34234D" d="M644.154 453.984C639.787 462.651 636.145 471.809 632.234 480.699L609.507 533.05C606.872 539.2 603.586 550.386 600.413 555.613C599.185 555.917 598.359 555.593 597.171 555.272C600.96 546.998 604.209 538.471 607.695 530.066C614.21 514.358 620.784 498.584 627.595 483.004C610.557 477.28 593.293 469.751 577.143 461.828C567.729 482.807 558.552 503.892 549.614 525.079C545.294 535.287 540.587 545.528 536.78 555.935L533.015 555.947C536.172 548.212 539.455 540.529 542.865 532.902C545.341 528.544 547.137 523.265 549.12 518.644L561.235 490.365L561.709 489.585C564.836 479.335 570.617 468.589 574.935 458.7C580.442 448.997 584.163 432.459 589.988 423.158C590.472 422.385 591.193 421.483 592.17 421.415C594.454 421.255 644.663 441.627 647.257 443.55C648.187 446.62 645.394 451.206 644.154 453.984ZM592.997 424.717C587.891 436.084 582.957 447.528 578.197 459.045C589.129 464.244 600.508 468.773 611.706 473.376C617.057 475.576 623.367 478.798 629.025 479.976C634.075 468.422 639.233 456.916 644.499 445.458C635.124 441.195 625.364 437.657 615.8 433.834C608.201 430.797 600.729 427.404 592.997 424.717Z"/>
	<path fill="#34234D" d="M339.444 430.788C357.096 427.356 375.351 425.486 393.151 422.771C394.756 422.669 395.465 422.39 396.861 423.246L397.657 425.452C399.468 436.109 401.065 446.854 403.23 457.444L410.545 499.495C412.308 509.234 421.214 551.477 420.388 556.923L419.651 557.617C418.78 557.316 418.486 557.232 417.819 556.559C411.844 525.651 405.952 494.475 401.247 463.357C394.281 463.654 387.196 465.021 380.303 466.062L346.42 471.214C349.399 486.637 351.484 502.21 353.963 517.714C356.005 530.484 358.712 543.611 359.635 556.502C358.405 556.422 357.772 556.678 356.913 555.718L349.568 505.446C348.086 495.454 346.971 482.996 343.674 473.569C344.295 501.194 343.965 528.928 343.984 556.564C334.584 563.843 325.441 571.437 316.019 578.693C315.992 609.514 315.491 640.417 316.01 671.229L316.296 741.495C315.852 766.447 315.876 791.406 316.369 816.358C316.156 842.439 316.156 868.521 316.369 894.602C316.352 905.972 317.075 917.975 316.116 929.275C316.496 929.944 316.439 930.263 317.252 930.447C321.143 931.329 332.285 930.551 337.097 930.553L394.212 930.576L572.278 930.651C601.541 930.675 631.396 929.878 660.572 930.775C660.146 917.929 660.494 904.961 660.462 892.102C660.445 884.794 659.703 876.819 660.529 869.607C661.256 868.52 661.194 868.445 662.439 868.109L663.084 868.796C664.158 874.878 663.349 891.926 663.326 898.882C663.298 907.522 664.193 921.425 662.968 929.602C663.041 929.684 663.101 929.781 663.189 929.848C665.436 931.572 692.053 930.646 696.733 930.636C696.698 923.656 696.767 916.677 696.942 909.699C695.819 902.272 696.915 889.833 696.895 881.891C696.654 860.06 696.596 838.227 696.719 816.395C697.229 806.988 696.796 797.364 696.739 787.938C696.586 772.518 696.651 757.095 696.934 741.676C697.223 718.258 696.599 694.777 696.636 671.346C697.22 635.3 696.549 599.189 696.709 563.132C685.494 570.935 673.548 580.522 662.942 589.181C662.293 604.634 662.793 620.334 662.812 635.817C662.818 640.39 663.889 646.743 662.699 651.083C662.4 652.176 662.25 652.301 661.327 652.832L660.466 652.423C659.081 649.206 660.128 597.082 660.182 589.342C654.776 583.933 629.865 564.865 627.876 560.816L628.314 560.204C629.774 560.334 630.756 560.764 632 561.548C635.068 563.48 637.85 566.494 640.644 568.837C647.475 574.565 654.312 580.139 660.936 586.123C672.532 578.799 686.13 568.033 696.661 559.171C696.592 523.992 695.939 488.581 696.962 453.425C698.436 453.53 698.755 453.304 699.741 454.376C700.162 463.502 699.669 472.748 699.682 481.89L699.778 542.024L700.091 756.248C701.661 750.727 703.112 745.098 705.073 739.702C709.054 728.749 719.104 706.396 727.836 698.749L728.822 698.513C729.259 699.866 729.309 700.537 728.602 701.886C725.583 707.646 720.902 712.455 717.914 718.303C710.098 733.604 701.688 754.887 700.15 772.179C699.335 781.337 699.871 790.908 699.902 800.106C699.935 810.038 699.721 820.038 700.045 829.962C701.811 823.427 702.649 816.697 704.621 810.213C706.747 803.224 717.802 778.363 723.304 774.658C723.749 774.359 723.936 774.346 724.398 774.232L725.194 774.885C725.255 775.566 725.402 775.877 725.08 776.502C723.35 779.863 720.919 782.802 718.936 786.018C716.198 790.457 713.941 795.426 711.81 800.189C707.775 809.119 704.889 818.525 703.22 828.181C714.066 833.587 719.611 838.412 726.179 848.58C732.806 846.587 739.999 845.605 746.921 845.388C763.419 820.668 750.069 782.796 752.981 776.931L753.883 776.877C756.977 779.916 758.216 804.402 758.262 810.12C758.317 816.964 757.904 823.69 756.8 830.446C766.905 812.365 780.501 795.684 795.325 781.251C798.129 778.522 801.039 775.158 804.51 773.34L805.612 773.308L806.112 774.305L805.616 774.002L806.068 774.891C804.449 778.046 797.765 783.022 794.971 785.855C782.619 798.155 771.673 811.79 762.334 826.508C758.397 832.745 755.065 839.366 751.133 845.579C773.401 847.863 787.683 855.34 802.363 872.459C821.917 853.054 844.161 837.112 871.57 831.026C875.833 830.079 880.664 828.741 885.023 828.801C885.955 828.813 886.557 828.99 887.34 829.521C887.491 830.577 887.679 830.42 887 831.358C881.709 832.598 876.19 832.758 870.937 834.107C842.563 841.394 825.079 855.638 803.969 874.622C808.944 883.245 812.92 891.907 816.059 901.377C833.47 916.69 848 926.256 871.211 930.516C875.079 930.358 900.01 930.624 902.014 931.841C903.118 932.511 903.727 933.202 903.8 934.547C903.837 935.227 903.597 936.007 903.141 936.508C901.898 937.872 899.949 938.077 898.207 938.189C891.278 938.632 883.781 937.939 876.769 937.95L816.15 937.862L624.965 938.006L57.1629 938.074C53.7603 938.074 50.1659 938.476 47.4565 936.069C46.9948 934.948 46.8006 934.451 47.0887 933.257C48.4163 931.921 49.7865 931.49 51.6078 931.175C56.2285 930.374 61.5438 930.905 66.2449 930.907L95.7984 930.883C101.024 930.875 106.503 931.193 111.694 930.654C111.851 930.637 112.007 930.618 112.163 930.6C111.929 929.584 111.729 928.562 111.562 927.533C109.963 917.271 114.067 905.901 120.173 897.77C127.857 887.539 138.547 881.529 151.158 879.739C151.426 870.76 153.678 862.187 158.593 854.588C164.941 844.771 175.286 837.489 186.774 835.166C200.017 832.488 210.72 834.907 221.839 842.215C242.338 818.059 255.62 807.442 287.099 799.425C286.13 784.978 283.056 770.242 278.831 756.396C277.168 750.945 272.168 741.048 271.919 735.881C271.867 734.799 271.859 734.706 272.588 733.864L273.366 734.095C276.264 737.77 277.378 742.895 278.898 747.237C284.83 764.18 288.481 780.743 290.277 798.614C297.764 796.597 305.498 796.062 313.216 796C313.609 780.899 313.472 765.717 313.395 750.608C310.597 745.813 307.341 741.299 303.674 737.131C300.093 733.033 294.694 728.483 292.315 723.657L292.596 722.962L293.354 722.797C298.213 723.754 309.785 739.877 313.026 744.325L313.425 577.157C322.41 569.561 332.07 562.55 341.265 555.181C341.005 530.813 340.95 506.444 341.098 482.075C341.149 465.018 342.165 447.673 339.444 430.788ZM154.482 882.285C142.06 884.282 131.635 888.267 123.585 898.385C116.185 907.685 113.481 918.61 114.895 930.316C120.141 931.401 126.545 930.636 131.926 930.584L162.441 930.365L257.697 930.305C276.27 930.296 294.994 929.84 313.546 930.538C312.862 917.333 313.445 903.781 313.454 890.548L313.317 815.965C290.817 817.486 267.738 823.495 251.629 840.345C247.925 844.22 244.843 851.006 240.411 853.784C239.528 854.338 239.92 854.238 238.923 854.032C238.765 849.439 246.216 841.761 249.155 838.546C265.513 820.65 289.811 814.111 313.252 812.99L313.17 798.959C309.216 799.045 305.147 799.386 301.221 799.863C276.907 802.818 253.035 812.842 235.748 830.516C231.084 835.283 227.242 840.696 223.127 845.922C213.962 841.062 206.965 836.949 196.246 837.019C185.036 837.05 174.312 841.601 166.501 849.643C157.477 858.835 154.327 869.698 154.482 882.285ZM699.691 830.528C699.269 854.187 699.89 877.985 699.877 901.66C699.872 910.923 700.742 920.98 699.653 930.144C706.781 931.926 723.081 930.875 731.02 930.882C758.788 930.907 786.803 930.027 814.542 930.922C815.815 918.84 814.456 906.626 810.558 895.119C804.597 877.894 792.836 862.73 776.173 854.801C760.254 847.226 740.617 846.571 724.085 852.462C723.867 851.957 723.638 851.457 723.397 850.962C718.146 840.002 710.989 834.521 699.691 830.528ZM816.349 905.815C818.102 914.234 818.325 922.645 817.369 931.171C831.219 930.816 845.092 931.275 858.948 931.085C856.08 929.144 851.621 928.723 848.369 927.299C836.566 922.131 825.789 914.505 816.349 905.815ZM391.873 425.672C382.716 427.225 373.53 428.598 364.32 429.792C357.058 430.763 349.638 431.467 342.497 433.134C343.427 438.866 346.599 463.639 348.457 467.245C349.461 467.464 350.109 467.461 351.122 467.287C367.61 465.379 384.487 463.229 400.745 459.899C399.625 452.875 396.758 431.305 394.537 425.837C393.415 425.402 393.084 425.498 391.873 425.672Z"/>
	<path fill="#F6F6F6" d="M578.197 459.045C582.957 447.528 587.891 436.084 592.997 424.717C600.729 427.404 608.201 430.797 615.8 433.834C625.364 437.657 635.124 441.195 644.499 445.458C639.233 456.916 634.075 468.422 629.025 479.976C623.367 478.798 617.057 475.576 611.706 473.376C600.508 468.773 589.129 464.244 578.197 459.045Z"/>
	<path fill="#F6F6F6" d="M342.497 433.134C349.638 431.467 357.058 430.763 364.32 429.792C373.53 428.598 382.716 427.225 391.873 425.672C393.084 425.498 393.415 425.402 394.537 425.837C396.758 431.305 399.625 452.875 400.745 459.899C384.487 463.229 367.61 465.379 351.122 467.287C350.109 467.461 349.461 467.464 348.457 467.245C346.599 463.639 343.427 438.866 342.497 433.134Z"/>
	<path fill="#F6F6F6" d="M397.657 425.452L398.183 425.624C404.741 427.841 410.862 431.296 417.347 433.736C435.251 440.473 454.497 442.699 473.513 442.571C474.987 443.757 476.456 445.14 478.198 445.905C479.173 449.202 477.976 454.067 477.537 457.483C452.768 457.307 427.999 457.293 403.23 457.444C401.065 446.854 399.468 436.109 397.657 425.452Z"/>
	<path fill="#FE5168" d="M597.171 555.272C598.359 555.593 599.185 555.917 600.413 555.613C603.586 550.386 606.872 539.2 609.507 533.05L632.234 480.699C636.145 471.809 639.787 462.651 644.154 453.984C651.99 454.069 692.154 455.015 696.962 453.425C695.939 488.581 696.592 523.992 696.661 559.171C686.13 568.033 672.532 578.799 660.936 586.123C654.312 580.139 647.475 574.565 640.644 568.837C637.85 566.494 635.068 563.48 632 561.548C630.756 560.764 629.774 560.334 628.314 560.204L627.876 560.816C629.865 564.865 654.776 583.933 660.182 589.342C660.128 597.082 659.081 649.206 660.466 652.423L661.327 652.832C662.25 652.301 662.4 652.176 662.699 651.083C663.889 646.743 662.818 640.39 662.812 635.817C662.793 620.334 662.293 604.634 662.942 589.181C673.548 580.522 685.494 570.935 696.709 563.132C696.549 599.189 697.22 635.3 696.636 671.346C691.252 671.307 665.616 670.264 662.789 671.891C661.879 671.834 660.896 671.554 659.994 671.383C644.598 670.016 624.848 671.216 609.072 671.292L521.92 671.29C521.997 674.705 522.184 678.152 522.071 681.567C521.676 690.915 517.579 699.722 510.684 706.046C503.337 712.854 493.294 716.118 483.338 715.587C473.988 715.15 465.206 710.976 458.962 704.002C450.428 694.308 449.241 683.619 450.067 671.262C433.859 670.714 417.518 671.079 401.298 671.066L316.01 671.229C315.491 640.417 315.992 609.514 316.019 578.693C325.441 571.437 334.584 563.843 343.984 556.564C343.965 528.928 344.295 501.194 343.674 473.569C346.971 482.996 348.086 495.454 349.568 505.446L356.913 555.718C357.772 556.678 358.405 556.422 359.635 556.502C369.462 555.89 379.536 556.325 389.385 556.357C398.801 556.388 408.436 556.015 417.819 556.559C418.486 557.232 418.78 557.316 419.651 557.617L420.388 556.923C421.214 551.477 412.308 509.234 410.545 499.495L403.23 457.444C427.999 457.293 452.768 457.307 477.537 457.483C475.805 470.548 474.961 483.712 474.225 496.866L473.652 496.012C468.666 495.959 458.057 503.484 454.45 506.972C451.631 509.696 449.174 512.523 447.609 516.144C441.545 530.175 441.595 541.773 446.211 556.323C451.35 556.306 470.351 557.113 474.203 556.042C475.427 556.509 475.881 556.597 477.209 556.254C477.332 556.222 477.438 556.144 477.553 556.089C495.925 554.933 514.591 556.205 533.015 555.947L536.78 555.935C550.788 555.035 565.06 555.551 579.095 555.566C585.029 555.572 591.285 555.965 597.171 555.272Z"/>
	<path fill="#FE5168" d="M480.974 457.458L526.029 457.783C534.701 457.841 543.416 457.61 552.076 458.097C551.821 458.214 551.567 458.336 551.31 458.45C547.292 460.224 541.781 460.585 537.446 461.673C529.27 463.726 521.108 466.572 513.324 469.825C500.21 475.307 490.539 485.48 478.518 492.572C476.85 486.767 480.129 464.594 480.974 457.458Z"/>
	<path fill="#00B4F3" d="M552.076 458.097C559.725 457.837 567.304 458.247 574.935 458.7C570.617 468.589 564.836 479.335 561.709 489.585C553.562 489.282 544.613 492.368 536.394 493.113C542.08 485.745 547.878 478.452 553.493 471.03L553.248 470.58C549.626 472.601 539.15 488.408 535.216 492.789L512.263 496.427L512.667 495.793C516.597 489.675 521.455 483.954 525.901 478.195L525.458 477.952C519.894 483.068 515.386 490.385 510.911 496.462C505.561 496.261 481.204 496.223 478.672 493.935L478.399 493.079L478.518 492.572C490.539 485.48 500.21 475.307 513.324 469.825C521.108 466.572 529.27 463.726 537.446 461.673C541.781 460.585 547.292 460.224 551.31 458.45C551.567 458.336 551.821 458.214 552.076 458.097Z"/>
	<path fill="#F6F6F6" d="M597.171 555.272C591.285 555.965 585.029 555.572 579.095 555.566C565.06 555.551 550.788 555.035 536.78 555.935C540.587 545.528 545.294 535.287 549.614 525.079C558.552 503.892 567.729 482.807 577.143 461.828C593.293 469.751 610.557 477.28 627.595 483.004C620.784 498.584 614.21 514.358 607.695 530.066C604.209 538.471 600.96 546.998 597.171 555.272Z"/>
	<path fill="#F6F6F6" d="M359.635 556.502C358.712 543.611 356.005 530.484 353.963 517.714C351.484 502.21 349.399 486.637 346.42 471.214L380.303 466.062C387.196 465.021 394.281 463.654 401.247 463.357C405.952 494.475 411.844 525.651 417.819 556.559C408.436 556.015 398.801 556.388 389.385 556.357C379.536 556.325 369.462 555.89 359.635 556.502Z"/>
	<path fill="#12578B" d="M536.394 493.113C544.613 492.368 553.562 489.282 561.709 489.585L561.235 490.365C555.677 490.635 550.276 492.02 544.769 492.684C548.104 494.666 551.388 496.733 554.619 498.88L554.483 499.07L554.941 499.166C554.683 499.072 554.425 498.981 554.168 498.884C550.644 497.548 547.169 495.285 543.927 493.358C533.844 493.211 522.456 495.278 512.566 497.387C516.512 499.866 528.028 505.483 530.471 508.481C524.487 506.151 519.488 501.985 513.768 499.203C508.486 496.636 485.824 496.281 479.066 496.635L477.857 496.435L478.399 493.079L478.672 493.935C481.204 496.223 505.561 496.261 510.911 496.462C515.386 490.385 519.894 483.068 525.458 477.952L525.901 478.195C521.455 483.954 516.597 489.675 512.667 495.793L512.263 496.427L535.216 492.789C539.15 488.408 549.626 472.601 553.248 470.58L553.493 471.03C547.878 478.452 542.08 485.745 536.394 493.113Z"/>
	<path fill="#34234D" d="M847.755 480.434C845.912 480.611 844.063 480.725 842.212 480.777C837.623 480.87 800.51 481.59 799.051 480.777C798.624 480.539 798.346 480.099 797.993 479.76C803.054 478.77 809.046 479.333 814.239 479.33L843.161 479.369C844.898 479.379 846.501 479.159 847.755 480.434Z"/>
	<path fill="#00B4F3" d="M544.769 492.684C550.276 492.02 555.677 490.635 561.235 490.365L549.12 518.644C547.137 523.265 545.341 528.544 542.865 532.902C528.075 531.207 512.331 522.563 500.754 513.53C493.513 507.881 486.774 501.666 479.066 496.635C485.824 496.281 508.486 496.636 513.768 499.203C519.488 501.985 524.487 506.151 530.471 508.481C528.028 505.483 516.512 499.866 512.566 497.387C522.456 495.278 533.844 493.211 543.927 493.358C547.169 495.285 550.644 497.548 554.168 498.884C554.425 498.981 554.683 499.072 554.941 499.166L554.483 499.07L554.619 498.88C551.388 496.733 548.104 494.666 544.769 492.684Z"/>
	<path fill="#34234D" d="M775.712 494.221C773.809 494.24 771.261 494.55 769.722 493.394C770.755 492.614 771.568 492.609 772.853 492.516C778.148 492.132 783.785 492.537 789.119 492.522C800.665 492.511 812.211 492.416 823.755 492.238C825.662 492.155 827.178 492.044 828.859 493.127L828.519 493.626C822.661 494.75 815.513 494.041 809.516 494.054L775.712 494.221Z"/>
	<path fill="#34234D" d="M127.768 498.434L74.0193 498.291C68.9392 498.296 57.0311 499.195 52.8003 498.322C52.4466 498.249 52.1824 497.948 51.8735 497.761L51.8132 496.121C60.4508 495.909 125.292 495.37 127.646 496.941L127.768 498.434Z"/>
	<path fill="#F6F6F6" d="M446.211 556.323C441.595 541.773 441.545 530.175 447.609 516.144C449.174 512.523 451.631 509.696 454.45 506.972C458.057 503.484 468.666 495.959 473.652 496.012L474.225 496.866C473.258 516.58 473.25 536.328 474.203 556.042C470.351 557.113 451.35 556.306 446.211 556.323Z"/>
	<path fill="#F6F6F6" d="M477.553 556.089C476.49 543.276 475.419 507.511 477.857 496.435L479.066 496.635C486.774 501.666 493.513 507.881 500.754 513.53C512.331 522.563 528.075 531.207 542.865 532.902C539.455 540.529 536.172 548.212 533.015 555.947C514.591 556.205 495.925 554.933 477.553 556.089Z"/>
	<path fill="#34234D" d="M182.943 518.676C169.947 519.229 156.713 518.61 143.687 518.629C125.417 518.655 107.064 519.173 88.8093 518.919C87.7263 518.904 86.8476 518.889 85.8435 518.424C85.0123 518.039 85.141 517.465 84.9307 516.655C91.6211 516.168 98.5572 516.502 105.273 516.487L143.052 516.425L169.247 516.42C173.7 516.423 178.591 516.037 182.982 516.65L183.514 517.49L182.943 518.676Z"/>
	<path fill="#F6F6F6" d="M316.01 671.229L401.298 671.066C417.518 671.079 433.859 670.714 450.067 671.262C449.241 683.619 450.428 694.308 458.962 704.002C465.206 710.976 473.988 715.15 483.338 715.587C493.294 716.118 503.337 712.854 510.684 706.046C517.579 699.722 521.676 690.915 522.071 681.567C522.184 678.152 521.997 674.705 521.92 671.29L609.072 671.292C624.848 671.216 644.598 670.016 659.994 671.383C660.031 694.727 660.285 718.101 660.008 741.442C645.569 742.064 630.976 741.673 616.517 741.666L540.634 741.654L316.296 741.495L316.01 671.229Z"/>
	<path fill="#F6F6F6" d="M662.789 671.891C665.616 670.264 691.252 671.307 696.636 671.346C696.599 694.777 697.223 718.258 696.934 741.676C691.002 741.764 667.194 742.771 663.153 741.14L662.789 671.891Z"/>
	<path fill="#34234D" d="M659.994 671.383C660.896 671.554 661.879 671.834 662.789 671.891L663.153 741.14L663.051 741.372C663.522 747.357 663.113 753.684 663.122 759.706C663.131 765.314 663.552 771.191 663.186 776.775C663.066 778.596 662.823 780.205 661.863 781.771L661.13 781.788C658.698 777.552 659.993 748.567 660.008 741.442C660.285 718.101 660.031 694.727 659.994 671.383Z"/>
	<path fill="#34234D" d="M253.703 713.254C252.888 713.073 252.261 712.935 251.551 712.446C247.655 709.764 244.142 705.272 240.412 702.201C238.9 700.956 235.65 699.078 234.756 697.411C234.436 696.813 234.969 695.412 235.117 694.739C240.094 696.469 252.006 707.034 254.307 711.743L253.703 713.254Z"/>
	<path fill="#34234D" d="M832.725 757.908C832.552 757.907 832.374 757.947 832.205 757.906C831.015 757.615 830.826 757.299 830.388 756.28C830.443 756.154 830.482 756.02 830.553 755.902C834.035 750.113 866.277 737.267 873.859 734.534C875.035 734.408 875.519 734.493 876.575 735.028L876.558 735.772C873.598 739.082 865.151 741.059 860.956 742.805C851.165 746.882 841.481 751.93 832.725 757.908Z"/>
	<path fill="#00B4F3" d="M663.153 741.14C667.194 742.771 691.002 741.764 696.934 741.676C696.651 757.095 696.586 772.518 696.739 787.938C696.796 797.364 697.229 806.988 696.719 816.395C646.707 815.76 596.61 816.414 546.588 816.323L316.369 816.358C315.876 791.406 315.852 766.447 316.296 741.495L540.634 741.654L616.517 741.666C630.976 741.673 645.569 742.064 660.008 741.442C659.993 748.567 658.698 777.552 661.13 781.788L661.863 781.771C662.823 780.205 663.066 778.596 663.186 776.775C663.552 771.191 663.131 765.314 663.122 759.706C663.113 753.684 663.522 747.357 663.051 741.372L663.153 741.14ZM653.945 804.581C652.971 806.162 652.421 807.892 652.917 809.754C653.159 810.663 654.011 811.5 654.841 811.925C658.721 813.912 666.369 813.134 670.386 811.807C671.646 810.602 672.252 809.849 672.792 808.18C672.563 806.894 672.568 806.55 671.433 805.735C668.04 803.299 658.077 804.483 653.945 804.581Z"/>
	<path fill="#F6F6F6" d="M114.895 930.316C113.481 918.61 116.185 907.685 123.585 898.385C131.635 888.267 142.06 884.282 154.482 882.285C154.327 869.698 157.477 858.835 166.501 849.643C174.312 841.601 185.036 837.05 196.246 837.019C206.965 836.949 213.962 841.062 223.127 845.922C227.242 840.696 231.084 835.283 235.748 830.516C253.035 812.842 276.907 802.818 301.221 799.863C305.147 799.386 309.216 799.045 313.17 798.959L313.252 812.99C289.811 814.111 265.513 820.65 249.155 838.546C246.216 841.761 238.765 849.439 238.923 854.032C239.92 854.238 239.528 854.338 240.411 853.784C244.843 851.006 247.925 844.22 251.629 840.345C267.738 823.495 290.817 817.486 313.317 815.965L313.454 890.548C313.445 903.781 312.862 917.333 313.546 930.538C294.994 929.84 276.27 930.296 257.697 930.305L162.441 930.365L131.926 930.584C126.545 930.636 120.141 931.401 114.895 930.316ZM301.812 832.126C288.33 834.673 275.759 840.204 267.825 851.941C265.703 855.081 262.497 859.718 262.05 863.543C262.658 864.493 262.671 864.547 263.72 864.939C264.63 864.256 264.892 863.752 265.33 862.711C270.403 851.194 278.439 842.936 290.291 838.326C295.586 836.267 301.191 835.415 306.757 834.421L307.069 833.348C306.593 832.488 306.815 832.469 305.991 832.21C304.636 831.783 303.204 832.014 301.812 832.126ZM189.801 848.571C182.587 850.252 176.742 852.762 172.715 859.39C170.336 863.305 167.64 871.502 169.549 876.015C169.797 876.602 169.916 876.664 170.306 877.059C171.462 877.061 171.547 877.018 172.506 876.367C171.656 870.523 172.668 864.415 176.243 859.589C181.795 852.094 189.372 853.653 192.701 850.139L192.471 849.186C191.446 848.585 190.985 848.492 189.801 848.571ZM239.962 878.688C238.762 879.248 238.213 880.65 238.713 881.876C239.213 883.102 240.587 883.719 241.836 883.28C242.7 882.975 243.326 882.22 243.466 881.315C243.605 880.409 243.234 879.501 242.501 878.951C241.768 878.402 240.792 878.301 239.962 878.688ZM138.417 895.863C136.747 897.212 134.983 898.405 133.911 900.302L134.083 901.273C134.967 901.725 135.483 901.9 136.478 901.911C138.17 900.478 140.452 899.031 140.674 896.696C139.759 896.033 139.547 895.989 138.417 895.863ZM264.556 896.889C263.71 897.231 263.123 898.013 263.032 898.921C262.942 899.829 263.362 900.712 264.123 901.214C264.885 901.716 265.862 901.754 266.661 901.313C267.797 900.686 268.248 899.283 267.69 898.111C267.133 896.939 265.76 896.404 264.556 896.889ZM128.819 909.627C127.53 912.053 125.573 915.589 126.212 918.412C126.455 919.488 126.976 920.006 127.907 920.498C127.992 920.543 128.09 920.555 128.182 920.584C129.365 918.155 131.319 913.082 130.469 910.49C129.925 910.184 129.402 909.853 128.819 909.627Z"/>
	<path fill="#78D6F9" d="M670.386 811.807C666.369 813.134 658.721 813.912 654.841 811.925C654.011 811.5 653.159 810.663 652.917 809.754C652.421 807.892 652.971 806.162 653.945 804.581C658.077 804.483 668.04 803.299 671.433 805.735C672.568 806.55 672.563 806.894 672.792 808.18C672.252 809.849 671.646 810.602 670.386 811.807Z"/>
	<path fill="#F6F6F6" d="M316.369 816.358L546.588 816.323C596.61 816.414 646.707 815.76 696.719 816.395C696.596 838.227 696.654 860.06 696.895 881.891C696.915 889.833 695.819 902.272 696.942 909.699C696.767 916.677 696.698 923.656 696.733 930.636C692.053 930.646 665.436 931.572 663.189 929.848C663.101 929.781 663.041 929.684 662.968 929.602C664.193 921.425 663.298 907.522 663.326 898.882C663.349 891.926 664.158 874.878 663.084 868.796L662.439 868.109C661.194 868.445 661.256 868.52 660.529 869.607C659.703 876.819 660.445 884.794 660.462 892.102C660.494 904.961 660.146 917.929 660.572 930.775C631.396 929.878 601.541 930.675 572.278 930.651L394.212 930.576L337.097 930.553C332.285 930.551 321.143 931.329 317.252 930.447C316.439 930.263 316.496 929.944 316.116 929.275C317.075 917.975 316.352 905.972 316.369 894.602C316.156 868.521 316.156 842.439 316.369 816.358ZM660.554 834.626C660.35 838.617 659.188 845.715 660.962 849.25C661.808 849.567 662.199 849.566 663.081 849.382C663.242 846.262 664.536 838.09 662.622 835.565C662.118 834.9 661.312 834.858 660.554 834.626Z"/>
	<path fill="#F6F6F6" d="M699.653 930.144C700.742 920.98 699.872 910.923 699.877 901.66C699.89 877.985 699.269 854.187 699.691 830.528C710.989 834.521 718.146 840.002 723.397 850.962C723.638 851.457 723.867 851.957 724.085 852.462C740.617 846.571 760.254 847.226 776.173 854.801C792.836 862.73 804.597 877.894 810.558 895.119C814.456 906.626 815.815 918.84 814.542 930.922C786.803 930.027 758.788 930.907 731.02 930.882C723.081 930.875 706.781 931.926 699.653 930.144ZM750.249 857.692C741.778 858.682 731.135 861.405 724.999 867.696L724.767 868.619C727.154 869.298 729.633 867.58 731.621 866.47C732.562 865.944 733.499 865.412 734.433 864.874C746.242 860.017 750.063 860.907 762.283 860.578C763.276 860.552 764.305 860.614 764.917 859.782C764.319 858.66 763.796 858.463 762.596 858.163C758.92 857.244 754 857.32 750.249 857.692ZM782.97 880.149C781.723 880.845 781.26 882.411 781.928 883.674C782.596 884.937 784.151 885.435 785.429 884.795C786.281 884.368 786.836 883.513 786.878 882.561C786.921 881.608 786.444 880.708 785.633 880.207C784.821 879.706 783.803 879.684 782.97 880.149ZM720.387 882.179C719.257 882.921 718.927 884.43 719.644 885.576C720.361 886.723 721.863 887.086 723.025 886.395C723.799 885.934 724.264 885.089 724.239 884.188C724.214 883.287 723.702 882.47 722.903 882.052C722.104 881.635 721.141 881.684 720.387 882.179ZM760.101 899.841C759.07 900.667 758.894 902.169 759.706 903.211C760.519 904.254 762.018 904.45 763.071 903.651C763.765 903.125 764.122 902.266 764.006 901.403C763.889 900.54 763.317 899.807 762.509 899.483C761.701 899.16 760.781 899.296 760.101 899.841Z"/>
	<path fill="#34234D" d="M265.33 862.711C264.892 863.752 264.63 864.256 263.72 864.939C262.671 864.547 262.658 864.493 262.05 863.543C262.497 859.718 265.703 855.081 267.825 851.941C275.759 840.204 288.33 834.673 301.812 832.126C303.204 832.014 304.636 831.783 305.991 832.21C306.815 832.469 306.593 832.488 307.069 833.348L306.757 834.421C301.191 835.415 295.586 836.267 290.291 838.326C278.439 842.936 270.403 851.194 265.33 862.711Z"/>
	<path fill="#34234D" d="M663.081 849.382C662.199 849.566 661.808 849.567 660.962 849.25C659.188 845.715 660.35 838.617 660.554 834.626C661.312 834.858 662.118 834.9 662.622 835.565C664.536 838.09 663.242 846.262 663.081 849.382Z"/>
	<path fill="#34234D" d="M172.506 876.367C171.547 877.018 171.462 877.061 170.306 877.059C169.916 876.664 169.797 876.602 169.549 876.015C167.64 871.502 170.336 863.305 172.715 859.39C176.742 852.762 182.587 850.252 189.801 848.571C190.985 848.492 191.446 848.585 192.471 849.186L192.701 850.139C189.372 853.653 181.795 852.094 176.243 859.589C172.668 864.415 171.656 870.523 172.506 876.367Z"/>
	<path fill="#34234D" d="M734.433 864.874C733.499 865.412 732.562 865.944 731.621 866.47C729.633 867.58 727.154 869.298 724.767 868.619L724.999 867.696C731.135 861.405 741.778 858.682 750.249 857.692C754 857.32 758.92 857.244 762.596 858.163C763.796 858.463 764.319 858.66 764.917 859.782C764.305 860.614 763.276 860.552 762.283 860.578C750.063 860.907 746.242 860.017 734.433 864.874Z"/>
	<path fill="#34234D" d="M241.836 883.28C240.587 883.719 239.213 883.102 238.713 881.876C238.213 880.65 238.762 879.248 239.962 878.688C240.792 878.301 241.768 878.402 242.501 878.951C243.234 879.501 243.605 880.409 243.466 881.315C243.326 882.22 242.7 882.975 241.836 883.28Z"/>
	<path fill="#34234D" d="M785.429 884.795C784.151 885.435 782.596 884.937 781.928 883.674C781.26 882.411 781.723 880.845 782.97 880.149C783.803 879.684 784.821 879.706 785.633 880.207C786.444 880.708 786.921 881.608 786.878 882.561C786.836 883.513 786.281 884.368 785.429 884.795Z"/>
	<path fill="#34234D" d="M723.025 886.395C721.863 887.086 720.361 886.723 719.644 885.576C718.927 884.43 719.257 882.921 720.387 882.179C721.141 881.684 722.104 881.635 722.903 882.052C723.702 882.47 724.214 883.287 724.239 884.188C724.264 885.089 723.799 885.934 723.025 886.395Z"/>
	<path fill="#34234D" d="M136.478 901.911C135.483 901.9 134.967 901.725 134.083 901.273L133.911 900.302C134.983 898.405 136.747 897.212 138.417 895.863C139.547 895.989 139.759 896.033 140.674 896.696C140.452 899.031 138.17 900.478 136.478 901.911Z"/>
	<path fill="#34234D" d="M266.661 901.313C265.862 901.754 264.885 901.716 264.123 901.214C263.362 900.712 262.942 899.829 263.032 898.921C263.123 898.013 263.71 897.231 264.556 896.889C265.76 896.404 267.133 896.939 267.69 898.111C268.248 899.283 267.797 900.686 266.661 901.313Z"/>
	<path fill="#34234D" d="M763.071 903.651C762.018 904.45 760.519 904.254 759.706 903.211C758.894 902.169 759.07 900.667 760.101 899.841C760.781 899.296 761.701 899.16 762.509 899.483C763.317 899.807 763.889 900.54 764.006 901.403C764.122 902.266 763.765 903.125 763.071 903.651Z"/>
	<path fill="#F6F6F6" d="M817.369 931.171C818.325 922.645 818.102 914.234 816.349 905.815C825.789 914.505 836.566 922.131 848.369 927.299C851.621 928.723 856.08 929.144 858.948 931.085C845.092 931.275 831.219 930.816 817.369 931.171Z"/>
	<path fill="#34234D" d="M128.182 920.584C128.09 920.555 127.992 920.543 127.907 920.498C126.976 920.006 126.455 919.488 126.212 918.412C125.573 915.589 127.53 912.053 128.819 909.627C129.402 909.853 129.925 910.184 130.469 910.49C131.319 913.082 129.365 918.155 128.182 920.584Z"/>
	<path fill="#34234D" d="M1008.95 937.989C991.348 938.586 973.477 937.963 955.845 937.984C949.367 937.992 927.612 938.96 922.532 937.61C921.322 936.599 921.129 936.473 920.659 934.986C920.861 933.344 921.431 932.403 922.32 931.025C932.344 930.84 1006.24 930.328 1009.4 931.479C1010.27 932.41 1010.59 932.683 1010.69 934.033C1010.8 935.694 1010 936.829 1008.95 937.989Z"/>
</svg>
